<?xml version="1.0" standalone="no"?>
<!DOCTYPE svg PUBLIC "-//W3C//DTD SVG 20010904//EN"
 "http://www.w3.org/TR/2001/REC-SVG-20010904/DTD/svg10.dtd">
<svg version="1.0" xmlns="http://www.w3.org/2000/svg"
 width="500.000000pt" height="500.000000pt" viewBox="0 0 500.000000 500.000000"
 preserveAspectRatio="xMidYMid meet">

<g transform="translate(0.000000,500.000000) scale(0.100000,-0.100000)"
fill="#000000" stroke="none">
<path d="M2265 3973 c-54 -7 -220 -51 -276 -73 -141 -55 -302 -163 -405 -271
-65 -69 -137 -163 -156 -204 -8 -18 -19 -25 -40 -25 -16 0 -38 -5 -50 -11 -25
-13 -48 -68 -48 -114 0 -24 -7 -41 -22 -53 -77 -62 -81 -68 -74 -97 4 -15 24
-45 45 -67 36 -36 38 -41 30 -81 -14 -74 -12 -81 29 -96 42 -16 143 -20 185
-7 l29 9 -7 -49 c-4 -27 -15 -61 -26 -76 -23 -33 -23 -35 -4 -55 8 -8 13 -19
10 -24 -4 -5 -1 -9 6 -9 8 0 8 -4 -1 -15 -10 -12 -9 -16 4 -21 9 -3 23 -29 31
-57 26 -87 33 -82 -126 -82 -128 0 -142 -2 -155 -19 -23 -33 -17 -64 16 -81
22 -12 65 -15 192 -15 l163 0 85 -82 c47 -46 114 -100 150 -121 l65 -38 129 6
c71 4 147 13 169 21 23 8 84 53 142 104 l103 90 32 -37 33 -37 -32 -26 c-17
-15 -31 -32 -31 -38 0 -6 19 -16 43 -22 23 -6 62 -18 87 -26 25 -9 74 -20 110
-24 36 -4 93 -15 128 -24 42 -12 78 -15 105 -11 71 11 196 95 319 213 l56 55
144 1 c157 1 178 8 178 59 0 48 -27 58 -144 56 -59 -1 -109 0 -111 3 -3 2 6
38 19 79 13 41 26 94 29 119 3 24 11 46 17 48 7 3 3 10 -8 18 -15 11 -21 30
-27 86 -3 40 -13 89 -22 108 -22 52 -65 134 -72 140 -14 11 -35 43 -25 37 17
-10 104 19 118 39 14 19 40 10 32 -11 -2 -7 2 -22 10 -33 7 -11 16 -37 20 -59
3 -21 14 -47 25 -59 20 -21 25 -49 10 -58 -5 -3 -11 -15 -14 -26 -3 -11 -1
-18 4 -14 5 3 9 -1 9 -9 0 -17 21 -27 57 -27 25 0 26 1 20 63 -5 60 -36 172
-73 268 -17 45 -17 47 3 90 53 113 55 276 6 373 -14 27 -17 28 -67 23 -28 -3
-80 -17 -115 -31 l-64 -26 -53 49 c-155 142 -390 250 -608 280 -74 10 -277 13
-341 4z m384 -89 c171 -32 402 -144 505 -245 l39 -38 -44 -50 c-46 -52 -59
-60 -59 -37 0 17 -77 89 -117 109 -67 35 -199 43 -270 16 -20 -7 -23 -16 -23
-61 0 -52 38 -199 66 -252 8 -16 13 -29 12 -30 -2 -1 -28 -10 -58 -20 -30 -10
-57 -21 -60 -25 -3 -3 -23 -15 -45 -26 -22 -11 -57 -35 -77 -53 l-37 -34 -43
45 c-24 24 -52 49 -62 54 -18 10 -17 13 19 49 20 22 42 38 47 36 5 -1 7 2 4 7
-7 11 27 74 58 109 13 15 21 40 24 80 5 76 -23 120 -90 141 -44 13 -50 13
-108 -9 -35 -13 -89 -43 -120 -67 l-58 -43 -64 42 c-73 48 -137 68 -223 68
-77 -1 -131 -13 -167 -40 -40 -30 -35 -10 10 32 73 71 275 178 417 222 143 44
352 52 524 20z m823 -270 c5 -16 10 -67 10 -114 1 -73 -3 -93 -25 -140 -14
-30 -27 -50 -27 -45 -1 6 -5 1 -9 -10 -5 -11 -12 -20 -17 -21 -5 0 -26 -8 -46
-17 -38 -17 -118 -21 -151 -8 -17 6 -17 8 -3 20 13 11 19 11 31 1 19 -16 40
-3 25 15 -9 11 -5 17 22 28 56 24 138 139 138 195 0 30 -17 28 -34 -5 -16 -31
-99 -113 -115 -113 -11 0 -70 -24 -113 -46 -14 -8 -28 -14 -31 -14 -2 0 3 21
11 48 18 54 69 137 103 168 45 41 179 97 213 90 6 -1 14 -16 18 -32z m-1036
-12 c26 -17 36 -52 24 -88 -6 -19 -16 -32 -21 -29 -5 4 -9 -1 -9 -9 0 -15 -98
-138 -130 -163 -29 -24 -31 -13 -3 26 15 22 33 39 38 38 6 -1 9 4 7 11 -3 15
21 42 37 42 6 0 11 7 11 15 0 8 5 15 10 15 6 0 10 4 10 8 0 5 -10 8 -22 8 -18
-1 -22 4 -20 22 6 39 -31 26 -130 -49 -212 -161 -246 -186 -316 -234 -156
-107 -198 -131 -359 -210 -88 -43 -125 -56 -165 -58 -40 -1 -53 1 -53 12 0 17
37 39 136 81 167 71 392 210 654 405 105 77 201 146 215 152 29 13 70 16 86 5z
m475 -17 c49 -18 93 -55 116 -99 16 -31 23 -119 11 -132 -12 -11 -58 13 -58
31 0 8 -4 15 -9 15 -5 0 -15 14 -22 32 -14 35 -43 68 -59 68 -5 0 -10 4 -10 9
0 13 -32 23 -43 12 -9 -9 15 -64 39 -89 8 -7 14 -22 14 -32 0 -10 5 -22 11
-26 8 -5 8 -9 -1 -14 -33 -21 -136 159 -122 213 1 4 -2 7 -8 7 -5 0 -10 5 -10
10 0 15 102 12 151 -5z m-937 -15 c63 -24 92 -50 56 -50 -13 0 -62 -24 -109
-53 -100 -63 -207 -121 -236 -129 -11 -3 -28 -9 -37 -13 -15 -6 -18 -2 -18 28
0 29 4 36 25 41 30 8 33 26 5 26 -25 0 -25 7 1 50 28 47 94 108 122 113 59 11
139 6 191 -13z m-412 -140 c-8 -36 -16 -66 -17 -67 0 -1 -11 0 -23 4 -18 4
-21 10 -16 27 7 21 65 108 70 103 1 -1 -5 -31 -14 -67z m498 60 c0 -5 -4 -10
-10 -10 -5 0 -10 5 -10 10 0 6 5 10 10 10 6 0 10 -4 10 -10z m-585 -168 c50
-25 86 -56 101 -84 8 -15 14 -29 14 -33 0 -11 -38 -4 -50 10 -7 8 -23 15 -35
15 -16 0 -26 9 -35 31 -14 33 -76 86 -87 75 -4 -4 -3 -10 3 -14 12 -9 44 -54
44 -63 0 -15 -40 4 -40 20 -1 13 -3 13 -15 -3 -14 -18 -15 -17 -15 21 0 24 5
44 13 46 17 8 66 -3 102 -21z m305 -11 c0 -12 -20 -25 -27 -18 -7 7 6 27 18
27 5 0 9 -4 9 -9z m1285 -45 c34 -15 75 -67 75 -96 0 -8 27 -42 61 -75 63 -63
110 -144 128 -225 19 -84 13 -218 -14 -293 -23 -67 -79 -160 -117 -193 -17
-16 -19 -16 -36 -1 -10 10 -28 17 -40 17 -19 0 -22 6 -22 44 0 45 -10 59 -46
68 -24 6 -46 -8 -62 -39 -27 -50 -2 -131 49 -162 l32 -20 -44 -20 -45 -21 -39
20 c-22 11 -55 20 -75 20 -39 -1 -113 -25 -118 -38 -1 -5 -9 -17 -16 -27 -12
-17 -17 -17 -45 -5 -57 23 -81 48 -81 86 0 19 -4 34 -9 34 -13 0 -81 65 -81
78 0 7 11 35 25 63 41 86 67 210 64 302 -3 83 -33 196 -64 243 -22 34 -19 49
18 81 77 68 183 112 279 117 32 2 63 8 71 14 19 16 79 41 100 42 10 0 33 -6
52 -14z m-797 -56 c284 -133 358 -567 134 -789 -48 -47 -162 -102 -213 -103
-106 -2 -199 7 -199 19 0 7 -4 13 -10 13 -5 0 -10 5 -10 11 0 5 4 8 9 5 5 -3
12 5 15 19 4 14 11 25 16 25 15 0 12 -20 -6 -38 -16 -15 -15 -17 15 -25 22 -5
37 -4 47 4 20 17 17 26 -11 33 -16 4 -22 11 -19 21 6 13 -11 20 -38 16 -3 0
-10 14 -13 32 -10 45 -33 67 -70 67 -39 0 -50 12 -67 73 -6 26 -16 47 -20 47
-4 0 -10 22 -14 50 -4 29 -11 47 -17 43 -6 -4 -8 18 -5 61 2 37 9 70 15 74 6
4 14 22 18 40 8 37 30 83 60 127 26 38 84 95 96 95 5 0 9 5 9 11 0 5 5 7 10 4
6 -3 10 -2 10 4 0 10 56 26 78 22 6 -1 20 3 30 8 13 8 7 10 -30 11 -58 0 -67
12 -31 40 38 29 124 21 211 -20z m-746 -16 c11 -6 -11 -9 -65 -9 -56 0 -93 -5
-117 -17 -89 -42 -114 -27 -27 17 45 23 61 26 122 22 39 -2 78 -8 87 -13z
m-44 -50 c32 -9 27 -25 -6 -18 -32 7 -104 -29 -80 -40 7 -3 3 -3 -9 0 -13 3
-23 1 -23 -4 0 -7 -11 -6 -30 1 -32 12 -41 30 -12 25 9 -1 17 1 17 6 0 10 68
33 100 35 11 0 30 -2 43 -5z m-179 -25 c-7 -4 -17 -5 -22 -2 -5 3 -3 9 4 14 7
4 17 5 22 2 5 -3 3 -9 -4 -14z m157 -14 c-22 -16 -57 -21 -40 -6 7 8 29 15 54
20 3 0 -4 -6 -14 -14z m254 -269 c0 -2 -7 -9 -15 -16 -12 -10 -15 -10 -15 4 0
9 7 16 15 16 8 0 15 -2 15 -4z m-45 -186 c3 -5 1 -10 -4 -10 -6 0 -11 5 -11
10 0 6 2 10 4 10 3 0 8 -4 11 -10z m175 -74 c0 -26 -6 -18 -14 19 -5 22 -4 26
4 15 5 -8 10 -24 10 -34z m7 -48 c-3 -8 -6 -5 -6 6 -1 11 2 17 5 13 3 -3 4
-12 1 -19z m-79 -40 c-6 -18 -28 -21 -28 -4 0 9 7 16 16 16 9 0 14 -5 12 -12z
m1582 -78 c0 -5 -5 -10 -11 -10 -5 0 -7 5 -4 10 3 6 8 10 11 10 2 0 4 -4 4
-10z m58 -7 c-10 -2 -26 -2 -35 0 -10 3 -2 5 17 5 19 0 27 -2 18 -5z"/>
<path d="M2538 3353 c7 -3 16 -2 19 1 4 3 -2 6 -13 5 -11 0 -14 -3 -6 -6z"/>
<path d="M2396 3514 c-3 -8 1 -14 9 -14 20 0 28 17 11 23 -8 3 -17 -1 -20 -9z"/>
<path d="M2669 2989 c-29 -31 -38 -72 -18 -85 6 -3 16 -1 22 5 6 6 25 11 42
11 24 0 35 -6 43 -25 25 -54 70 -5 57 62 -12 68 -96 86 -146 32z"/>
<path d="M3012 2914 c-27 -19 -56 -84 -43 -97 6 -6 23 -5 45 3 40 13 60 5 71
-31 8 -23 40 -25 49 -3 3 9 6 33 6 55 0 72 -71 113 -128 73z"/>
<path d="M2630 2880 c0 -5 5 -10 11 -10 5 0 7 5 4 10 -3 6 -8 10 -11 10 -2 0
-4 -4 -4 -10z"/>
<path d="M2856 2875 c-9 -25 5 -46 28 -43 15 2 22 11 24 31 3 23 0 27 -21 27
-14 0 -27 -7 -31 -15z"/>
<path d="M2690 2835 c-18 -47 -12 -128 13 -176 57 -108 190 -116 284 -18 36
38 69 108 56 120 -11 10 -269 91 -310 97 -28 4 -34 0 -43 -23z m176 -47 c41
-11 74 -25 74 -30 0 -15 -48 -28 -80 -22 -29 6 -80 48 -80 65 0 12 2 12 86
-13z m-83 -106 c-13 -2 -23 -10 -23 -19 0 -9 -3 -14 -6 -10 -3 3 -3 14 0 25 5
15 12 18 29 14 l22 -7 -22 -3z m71 -11 c3 -5 -3 -11 -15 -14 -16 -4 -18 -3 -8
9 13 16 16 17 23 5z m-64 -10 c0 -6 -4 -12 -8 -15 -5 -3 -9 1 -9 9 0 8 4 15 9
15 4 0 8 -4 8 -9z m118 -5 c-7 -8 -15 -12 -17 -11 -5 6 10 25 20 25 5 0 4 -6
-3 -14z m-21 -32 c-3 -3 -12 -4 -19 -1 -8 3 -5 6 6 6 11 1 17 -2 13 -5z"/>
<path d="M2211 3091 c-19 -12 -5 -31 23 -31 25 0 51 22 39 33 -9 10 -45 8 -62
-2z"/>
<path d="M2241 2989 c-22 -24 -29 -52 -21 -94 7 -38 32 -43 50 -10 16 29 54
34 82 9 27 -26 49 -3 37 39 -19 69 -105 102 -148 56z"/>
<path d="M1920 2915 c-18 -19 -23 -36 -22 -71 0 -61 19 -73 52 -34 25 30 63
40 75 20 3 -5 15 -10 26 -10 29 0 25 51 -7 89 -34 41 -89 43 -124 6z"/>
<path d="M2125 2869 c-12 -36 36 -54 54 -21 7 13 6 23 -1 30 -19 19 -46 14
-53 -9z"/>
<path d="M2155 2820 c-66 -16 -130 -32 -142 -35 -62 -15 14 -162 100 -194 44
-17 109 -13 143 8 53 32 77 83 77 161 0 37 -3 72 -7 79 -10 16 -36 13 -171
-19z m61 -57 c-29 -24 -97 -32 -126 -13 -22 13 -8 21 72 39 81 19 97 11 54
-26z m-40 -88 c17 -13 16 -14 -13 -4 -34 11 -42 19 -20 19 7 0 22 -7 33 -15z
m78 -1 c4 -9 4 -19 1 -22 -3 -3 -5 0 -5 7 0 7 -4 10 -9 7 -5 -3 -11 1 -15 9
-3 9 0 15 8 15 8 0 17 -7 20 -16z m-137 -9 c0 -8 -4 -15 -9 -15 -10 0 -11 14
-1 23 9 10 10 9 10 -8z"/>
<path d="M1803 2800 c0 -25 2 -35 4 -22 2 12 2 32 0 45 -2 12 -4 2 -4 -23z"/>
<path d="M2370 2475 c-7 -9 -11 -17 -9 -20 3 -2 10 5 17 15 14 24 10 26 -8 5z"/>
<path d="M2287 2444 c7 -3 10 -11 7 -19 -8 -20 16 -29 32 -11 8 9 11 14 8 11
-4 -2 -13 2 -21 10 -8 8 -20 15 -26 14 -9 0 -9 -2 0 -5z"/>
<path d="M2065 2400 c3 -5 8 -10 11 -10 2 0 4 5 4 10 0 6 -5 10 -11 10 -5 0
-7 -4 -4 -10z"/>
<path d="M2173 2383 c-15 -5 -18 -33 -4 -33 5 0 16 -3 24 -6 19 -7 32 27 15
38 -14 9 -17 9 -35 1z"/>
<path d="M3399 3901 c-6 -18 -19 -31 -31 -33 -29 -4 -35 -28 -9 -35 12 -3 29
-19 37 -35 17 -32 37 -33 42 0 2 12 15 25 33 31 35 12 34 33 -1 41 -15 3 -27
15 -30 30 -8 35 -29 36 -41 1z"/>
<path d="M1492 3837 c-7 -8 -6 -18 4 -32 13 -18 15 -18 31 -3 13 14 14 20 3
32 -15 19 -24 20 -38 3z"/>
<path d="M1380 3706 c-5 -15 -21 -31 -36 -36 -29 -12 -28 -34 4 -38 12 -2 24
-15 31 -33 5 -16 15 -29 21 -29 6 0 16 13 21 29 7 18 19 31 31 33 34 5 33 27
-1 39 -18 6 -31 19 -33 31 -4 32 -26 33 -38 4z"/>
<path d="M1444 2755 c-3 -8 -4 -20 -2 -27 3 -7 7 -1 10 15 6 29 1 36 -8 12z"/>
<path d="M3606 2745 c-3 -8 -1 -15 4 -15 6 0 10 7 10 15 0 8 -2 15 -4 15 -2 0
-6 -7 -10 -15z"/>
<path d="M1235 2730 c3 -5 8 -10 11 -10 2 0 4 5 4 10 0 6 -5 10 -11 10 -5 0
-7 -4 -4 -10z"/>
<path d="M3647 2703 c4 -22 2 -25 -6 -13 -9 13 -11 12 -11 -3 0 -23 24 -17 28
7 2 10 0 22 -6 28 -6 6 -8 0 -5 -19z"/>
<path d="M3498 2673 c7 -3 16 -2 19 1 4 3 -2 6 -13 5 -11 0 -14 -3 -6 -6z"/>
<path d="M3601 2663 c-1 -18 19 -27 32 -13 9 10 8 12 -5 7 -9 -3 -19 -1 -22 6
-3 9 -5 9 -5 0z"/>
<path d="M3230 2089 c-7 -23 -13 -61 -14 -83 -4 -60 -15 -86 -35 -86 -19 0
-31 -35 -31 -87 0 -14 -4 -21 -10 -18 -5 3 -10 35 -10 71 0 50 3 64 15 64 29
0 55 38 55 79 0 77 -76 98 -260 71 -44 -6 -77 -6 -102 2 -26 8 -49 8 -77 0
-27 -6 -41 -6 -41 0 0 6 -28 8 -72 4 -40 -3 -85 -5 -100 -6 -18 0 -28 -5 -28
-15 0 -20 -15 -19 -46 2 -25 16 -80 20 -224 17 -30 -1 -122 -2 -205 -2 -82 -1
-161 -1 -175 -2 -14 0 -61 2 -105 6 -67 4 -86 2 -117 -14 -38 -20 -38 -20 -38
0 0 17 -7 19 -75 17 -111 -3 -125 -7 -125 -36 l0 -25 -36 22 c-54 34 -98 40
-221 33 l-113 -6 0 -63 c0 -36 4 -64 10 -64 6 0 10 -37 10 -91 0 -50 4 -99 10
-109 14 -27 64 -40 149 -40 86 0 139 12 172 39 22 17 23 17 48 -10 35 -38 93
-46 144 -20 36 18 41 18 75 4 56 -24 139 -22 192 4 43 22 45 22 65 4 29 -27
96 -36 133 -17 30 16 42 34 42 66 0 20 40 34 71 25 15 -5 19 -16 19 -56 l0
-50 33 5 c72 11 146 9 161 -3 30 -25 144 5 153 39 7 25 5 25 48 -4 71 -49 222
-42 286 12 17 14 40 44 50 66 l18 41 0 -38 c1 -42 15 -75 40 -94 42 -31 138
-22 162 15 10 16 10 16 5 0 -4 -12 0 -18 12 -19 29 -1 115 -9 149 -13 26 -4
32 -1 37 20 6 24 6 24 26 4 11 -11 32 -21 48 -22 53 -3 114 3 131 11 10 6 37
4 71 -5 92 -24 194 6 226 68 20 38 14 110 -11 138 -16 18 -16 21 0 64 9 24 14
50 10 56 -27 44 -193 67 -255 35 -36 -18 -70 -61 -71 -89 0 -12 -8 0 -18 28
-26 74 -49 88 -136 80 -47 -4 -79 -2 -93 5 -19 10 -22 8 -32 -30z m-1407 -46
c18 -5 22 -29 8 -51 -6 -11 -17 -11 -51 -2 -35 10 -45 9 -58 -3 -19 -20 -9
-34 31 -43 89 -19 124 -57 102 -111 -25 -59 -153 -69 -213 -18 -25 22 -26 25
-11 40 15 15 21 15 67 2 41 -13 54 -13 68 -3 24 18 11 33 -39 47 -66 17 -87
35 -87 72 0 18 6 41 13 51 22 30 98 39 170 19z m1605 -10 c9 -26 52 -155 71
-215 11 -34 7 -38 -40 -38 -38 0 -69 20 -69 45 0 8 -16 14 -40 17 -47 4 -56 0
-61 -27 -3 -15 -13 -21 -39 -23 -34 -3 -35 -2 -35 33 0 19 5 35 10 35 6 0 25
39 44 86 27 69 31 88 20 94 -8 6 3 10 31 13 99 8 97 9 108 -20z m329 10 c10
-4 12 -14 8 -32 -9 -36 -9 -35 -60 -21 -33 9 -49 10 -57 2 -19 -19 -1 -39 44
-50 61 -16 98 -46 98 -82 0 -16 -7 -35 -15 -43 -55 -55 -202 -39 -218 23 -8
29 12 34 69 17 56 -16 74 -13 74 13 0 14 -14 23 -53 34 -53 15 -87 41 -87 65
0 30 32 71 63 80 30 9 102 6 134 -6z m-2443 -7 c51 -21 76 -60 76 -118 0 -101
-37 -128 -177 -128 -79 0 -84 1 -93 24 -5 14 -8 68 -6 120 2 65 -1 96 -8 97
-6 1 0 5 14 9 41 13 158 11 194 -4z m241 -58 c4 -40 5 -100 3 -133 -3 -53 -6
-60 -25 -63 -12 -2 -31 2 -42 8 -19 10 -21 20 -21 135 l0 125 39 0 39 0 7 -72z
m603 45 c-3 -27 -6 -28 -65 -31 l-63 -3 0 -34 0 -35 51 0 c43 0 50 -3 47 -17
-2 -14 -15 -19 -51 -21 l-47 -3 0 -50 c0 -48 -1 -49 -30 -49 -47 0 -58 28 -62
158 l-3 112 113 0 113 0 -3 -27z m310 -6 c38 -38 38 -102 0 -130 l-27 -20 20
-39 c11 -22 18 -42 16 -44 -3 -3 -21 -8 -41 -11 -35 -5 -37 -4 -56 41 -15 32
-27 46 -41 46 -17 0 -19 -5 -14 -34 l7 -34 -46 -3 c-49 -4 -48 -5 -50 51 -1
14 -5 31 -9 38 -5 6 -4 12 1 12 5 0 8 34 7 74 -2 74 -2 75 24 80 14 2 61 3
104 2 70 -2 81 -6 105 -29z m192 -65 c0 -133 29 -173 91 -123 22 17 24 26 22
93 -1 40 -4 84 -5 98 -3 27 16 36 57 26 18 -5 26 -16 34 -56 18 -82 -4 -162
-52 -186 -41 -22 -127 -29 -171 -14 -52 17 -67 53 -68 157 0 94 5 103 60 103
l32 0 0 -98z m485 78 c0 -10 -12 -16 -39 -18 l-38 -3 3 -112 4 -112 -25 -3
c-14 -2 -34 4 -45 12 -18 13 -20 26 -20 115 l0 101 -27 0 c-18 0 -28 5 -28 14
0 22 17 25 120 23 77 -2 95 -5 95 -17z"/>
<path d="M3321 1928 c-7 -24 -15 -49 -17 -55 -4 -9 7 -13 36 -13 l42 0 -7 48
c-8 55 -12 62 -29 62 -8 0 -19 -19 -25 -42z"/>
<path d="M1203 1994 c-10 -26 4 -166 18 -174 18 -12 52 4 67 31 19 36 8 120
-19 142 -26 21 -58 22 -66 1z"/>
<path d="M2320 1951 c0 -58 1 -61 24 -61 33 0 56 25 56 59 0 32 -13 46 -53 56
l-27 7 0 -61z"/>
<path d="M1835 1673 c-49 -13 -69 -73 -24 -73 21 0 24 11 9 26 -17 17 14 36
51 32 39 -4 54 -25 45 -62 -9 -37 -29 -28 -40 17 -16 64 -36 46 -36 -33 0 -56
3 -70 15 -70 10 0 15 10 15 29 0 25 3 28 27 23 47 -9 73 57 35 91 -20 19 -67
28 -97 20z"/>
<path d="M893 1663 c-15 -5 -18 -33 -4 -33 6 0 13 5 16 10 3 6 11 10 17 10 7
0 7 -4 0 -13 -6 -7 -12 -35 -14 -62 -3 -46 -1 -50 26 -63 25 -13 31 -12 55 5
26 20 26 20 42 0 l16 -20 21 21 c12 12 22 28 22 35 0 6 -8 2 -18 -11 -25 -32
-32 -19 -32 55 0 75 -16 77 -26 3 -7 -53 -31 -84 -61 -78 -25 5 -29 39 -7 56
14 10 15 16 7 19 -19 7 -16 43 3 43 8 0 12 -4 9 -10 -3 -5 3 -10 14 -10 24 0
27 13 9 27 -15 12 -78 22 -95 16z"/>
<path d="M1162 1648 c-18 -18 -15 -27 23 -70 38 -42 38 -63 -1 -54 -27 7 -33
-8 -8 -18 25 -10 42 -7 58 10 15 14 17 14 32 -1 15 -14 18 -15 34 0 15 14 18
14 30 0 11 -14 15 -14 35 -1 20 13 24 13 29 1 8 -22 43 -18 68 7 14 14 23 18
26 10 9 -27 41 -33 75 -15 17 10 34 21 37 24 9 10 50 5 50 -7 0 -6 6 -17 14
-23 12 -10 19 -8 35 8 21 21 29 47 11 36 -5 -3 -10 -13 -10 -21 0 -31 -19 -12
-22 23 -3 34 -4 36 -20 20 -23 -23 -28 -21 -28 9 0 33 -24 27 -28 -7 -5 -32
-22 -50 -22 -22 0 47 -72 63 -86 20 -7 -21 -7 -21 -16 2 -7 20 -13 22 -38 17
-29 -5 -30 -4 -30 29 0 38 -19 49 -21 13 -2 -66 -22 -123 -40 -113 -5 4 -9 22
-9 41 0 31 -3 34 -29 34 -29 0 -61 -22 -61 -41 0 -5 -16 9 -37 31 -26 29 -33
44 -25 52 12 12 35 1 27 -13 -4 -5 1 -9 10 -9 10 0 15 7 13 18 -4 21 -57 29
-76 10z m149 -90 c-9 -42 -31 -49 -31 -10 0 31 7 42 25 42 9 0 10 -10 6 -32z
m139 3 c0 -32 -24 -59 -35 -41 -8 13 13 70 26 70 5 0 9 -13 9 -29z m100 0 c0
-33 -16 -49 -32 -33 -14 14 -1 62 17 62 10 0 15 -10 15 -29z"/>
<path d="M2937 1653 c-13 -12 -7 -33 9 -33 10 0 14 6 10 15 -3 8 -1 15 4 15 6
0 10 -31 10 -70 0 -78 17 -96 22 -22 l3 47 16 -36 c22 -48 55 -72 82 -58 13 8
22 8 30 0 7 -7 16 -7 29 0 12 6 24 6 38 -1 14 -8 22 -7 32 4 11 11 16 11 34
-1 19 -12 24 -12 36 1 11 12 15 12 31 -1 15 -15 19 -14 37 2 11 10 20 13 20 8
0 -20 30 -23 49 -4 27 27 61 33 61 11 0 -22 28 -34 46 -19 9 7 19 7 31 0 13
-7 23 -5 35 6 10 9 18 11 18 6 0 -20 33 -24 51 -7 11 10 19 12 19 7 0 -16 31
-25 46 -12 8 7 19 7 31 1 27 -14 63 4 76 37 6 16 19 32 29 34 23 6 22 -2 -2
-33 -11 -14 -20 -28 -20 -32 0 -12 68 -9 75 3 5 7 14 4 26 -7 18 -16 20 -16
39 1 11 10 20 13 20 8 0 -17 33 -25 46 -11 6 7 15 24 18 38 7 24 6 24 -9 -2
-22 -39 -35 -35 -35 11 0 29 -5 40 -18 43 -30 8 -54 -7 -71 -43 -10 -22 -24
-35 -39 -37 l-23 -4 26 41 25 41 -45 0 c-41 0 -45 -2 -45 -24 0 -29 -26 -58
-48 -54 -26 5 -24 25 3 32 37 9 35 46 -4 46 -24 0 -31 -6 -45 -40 -23 -58 -36
-50 -36 25 0 51 -3 65 -15 65 -11 0 -15 -11 -15 -39 0 -46 -15 -91 -30 -91 -5
0 -10 18 -10 40 0 39 -1 40 -36 40 -32 0 -37 -4 -51 -40 -23 -57 -38 -53 -33
7 1 17 -3 21 -14 17 -9 -3 -16 -10 -16 -15 0 -5 -4 -9 -10 -9 -5 0 -10 12 -10
26 0 39 -24 24 -31 -19 -3 -21 -9 -40 -12 -43 -13 -13 -27 9 -27 42 0 45 -22
41 -31 -5 -12 -56 -26 -56 -32 -1 -6 47 -23 49 -34 4 -11 -48 -33 -57 -33 -13
0 19 7 37 18 45 16 13 16 13 0 14 -10 0 -18 5 -18 10 0 6 -7 10 -15 10 -10 0
-15 -10 -15 -29 0 -37 -16 -81 -30 -81 -5 0 -10 18 -10 41 l0 40 -37 -3 c-33
-3 -40 -8 -56 -40 -9 -21 -22 -38 -27 -38 -6 0 -10 29 -10 65 0 37 -4 65 -10
65 -5 0 -10 -19 -10 -42 l0 -42 -30 47 c-21 34 -36 47 -53 47 -13 0 -27 -3
-30 -7z m233 -85 c0 -13 -5 -30 -10 -38 -14 -23 -34 3 -26 34 8 32 36 35 36 4z
m440 3 c0 -25 -10 -51 -20 -51 -14 0 -20 31 -10 51 14 24 30 25 30 0z m188 7
c-2 -6 -10 -14 -16 -16 -7 -2 -10 2 -6 12 7 18 28 22 22 4z m202 -7 c0 -25
-10 -51 -20 -51 -14 0 -20 31 -10 51 14 24 30 25 30 0z"/>
<path d="M2440 1630 c0 -13 -10 -24 -24 -30 -30 -11 -49 -44 -41 -69 8 -25 32
-34 47 -17 11 12 16 12 31 -1 15 -15 19 -15 36 1 15 14 20 14 30 3 15 -19 58
-10 76 16 20 29 9 35 -13 7 -12 -15 -25 -21 -35 -17 -23 9 -21 24 3 30 24 6
37 36 20 47 -24 15 -53 -3 -68 -42 -8 -21 -19 -38 -24 -38 -8 0 -12 58 -8 108
1 14 -4 22 -14 22 -9 0 -16 -9 -16 -20z m0 -49 c0 -20 -20 -61 -30 -61 -11 0
-14 53 -3 63 10 10 33 8 33 -2z m120 0 c0 -12 -20 -25 -27 -18 -7 7 6 27 18
27 5 0 9 -4 9 -9z"/>
<path d="M2662 1584 c4 -68 18 -90 47 -74 9 5 23 4 33 -1 12 -6 21 -5 30 5 11
12 15 12 31 -1 15 -15 19 -14 37 2 11 10 20 25 19 34 0 11 -4 9 -11 -6 -12
-25 -27 -30 -29 -10 -1 6 -2 23 -2 37 -2 22 -7 25 -37 25 -31 0 -37 -5 -53
-37 -10 -21 -23 -38 -28 -38 -5 0 -9 29 -9 65 0 53 -3 65 -16 65 -14 0 -16
-10 -12 -66z m128 -3 c0 -20 -20 -61 -30 -61 -11 0 -14 53 -3 63 10 10 33 8
33 -2z"/>
<path d="M2097 1603 c-2 -5 -7 -25 -11 -46 -9 -48 -30 -44 -34 6 -4 48 -19 47
-32 -3 -6 -22 -15 -40 -20 -40 -9 0 -15 37 -11 68 1 6 -5 12 -14 12 -21 0 -21
-73 0 -90 13 -10 19 -10 33 3 17 15 19 15 36 -1 16 -16 18 -16 34 4 21 25 62
38 62 19 0 -7 7 -18 15 -25 13 -10 19 -10 33 3 16 15 20 15 34 1 14 -14 19
-14 57 5 38 20 59 47 27 35 -10 -4 -16 2 -18 18 -2 17 -10 24 -31 26 -35 4
-54 -11 -62 -49 -11 -50 -30 -36 -25 18 1 17 -3 21 -14 17 -9 -3 -16 -10 -16
-15 0 -5 -4 -9 -10 -9 -5 0 -10 11 -10 25 0 24 -14 34 -23 18z m167 -44 c-2
-37 -3 -39 -18 -39 -19 0 -25 20 -15 48 11 30 34 23 33 -9z"/>
</g>
</svg>
